<?xml version="1.0" ?><!-- Uploaded to: SVG Repo, www.svgrepo.com, Generator: SVG Repo Mixer Tools -->
<svg width="456px" height="456px" viewBox="0 0 32 32" data-name="Layer 1" id="Layer_1" xmlns="http://www.w3.org/2000/svg" xmlns:xlink="http://www.w3.org/1999/xlink"><defs><style>.cls-1{fill:url(#linear-gradient);}.cls-2{fill:url(#linear-gradient-2);}.cls-3{fill:#f8edeb;}.cls-4{fill:#577590;}</style><linearGradient gradientUnits="userSpaceOnUse" id="linear-gradient" x1="4" x2="25" y1="16" y2="16"><stop offset="0" stop-color="#f9dcc4"/><stop offset="0.01" stop-color="#f8dbc2"/><stop offset="0.12" stop-color="#f3ceb1"/><stop offset="0.26" stop-color="#f0c5a6"/><stop offset="0.46" stop-color="#eebf9f"/><stop offset="1" stop-color="#edbe9d"/></linearGradient><linearGradient gradientUnits="userSpaceOnUse" id="linear-gradient-2" x1="7.48" x2="27.52" y1="8.98" y2="29.02"><stop offset="0" stop-color="#f9dcc4"/><stop offset="0.32" stop-color="#f8d9c0"/><stop offset="0.64" stop-color="#f4cfb3"/><stop offset="0.98" stop-color="#eebf9f"/><stop offset="1" stop-color="#edbe9d"/></linearGradient></defs><rect class="cls-1" height="22" rx="2.5" width="21" x="4" y="5"/><rect class="cls-2" height="22" rx="2.5" width="21" x="7" y="8"/><path class="cls-3" d="M20,2a5,5,0,0,0-5,5v5a2,2,0,0,0,3,1.73V15.5a3.5,3.5,0,0,0,7,0V7A5,5,0,0,0,20,2Z"/><path class="cls-4" d="M20,2a5,5,0,0,0-5,5v4.5a.5.5,0,0,0,1,0V7a4,4,0,0,1,8,0v8.5a2.5,2.5,0,0,1-5,0V7a1,1,0,0,1,2,0v8.5a.5.5,0,0,0,1,0V7a2,2,0,0,0-4,0v8.5a3.5,3.5,0,0,0,7,0V7A5,5,0,0,0,20,2Z"/></svg>